<?xml version="1.0" standalone="no"?>
<!DOCTYPE svg PUBLIC "-//W3C//DTD SVG 1.1//EN" "http://www.w3.org/Graphics/SVG/1.1/DTD/svg11.dtd" >
<svg xmlns="http://www.w3.org/2000/svg" xmlns:xlink="http://www.w3.org/1999/xlink" version="1.1">
<metadata></metadata>
<defs>
<font id="newsgoth_cn_btbold_italic" horiz-adv-x="1024" >
<font-face units-per-em="2048" ascent="1638" descent="-410" />
<missing-glyph horiz-adv-x="440" />
<glyph horiz-adv-x="0" />
<glyph unicode="&#xd;" horiz-adv-x="440" />
<glyph unicode=" "  horiz-adv-x="440" />
<glyph unicode="&#x09;" horiz-adv-x="440" />
<glyph unicode="&#xa0;" horiz-adv-x="440" />
<glyph unicode="!" horiz-adv-x="530" d="M12 0l49 229h238l-49 -229h-238zM135 436l166 1051h258l-270 -1051h-154z" />
<glyph unicode="&#x22;" horiz-adv-x="643" d="M86 879v557h164v-557h-164zM395 879v557h164v-557h-164z" />
<glyph unicode="#" horiz-adv-x="1575" d="M70 428l61 172h297l90 252h-315l61 172h316l155 436h191l-154 -436h250l156 436h190l-154 -436h291l-59 -172h-293l-90 -252h309l-61 -172h-307l-156 -434h-191l156 434h-252l-158 -434h-190l156 434h-299zM618 598h256l91 254h-256z" />
<glyph unicode="$" horiz-adv-x="883" d="M-39 328l178 80q17 -65 46 -110t73 -75l100 471q-116 122 -168.5 218.5t-52.5 189.5q0 169 104.5 275t270.5 106h8l37 182h121l-43 -197q90 -34 147.5 -96.5t87.5 -159.5l-165 -88q-16 65 -45.5 104t-71.5 48l-88 -418q134 -136 191 -237.5t57 -202.5q0 -190 -109 -304 t-291 -114q-2 0 -6 1t-6 1q-3 0 -4 -0.5t-2 -1.5l-49 -223h-121l51 256q-88 35 -150.5 108.5t-99.5 186.5zM334 1124q0 -39 18.5 -80t59.5 -92l73 340q-70 -3 -110.5 -48t-40.5 -120zM359 195q84 4 135 60t51 144q0 60 -24 108.5t-77 94.5z" />
<glyph unicode="%" horiz-adv-x="1720" d="M102 1159q0 140 98 237t238 97t238 -97t98 -237t-98 -239t-238 -99q-139 0 -237.5 99t-98.5 239zM283 1157q0 -64 44.5 -108.5t110.5 -44.5t111 44.5t45 108.5q0 65 -46 111.5t-110 46.5t-109.5 -46.5t-45.5 -111.5zM375 -25l815 1518h147l-817 -1518h-145zM938 313 q0 140 98 238t238 98t238 -98t98 -238q0 -139 -98 -237.5t-238 -98.5t-238 98.5t-98 237.5zM1118 313q0 -65 45 -110t111 -45t111 45t45 110t-46 110.5t-110 45.5q-65 0 -110.5 -45.5t-45.5 -110.5z" />
<glyph unicode="&#x26;" horiz-adv-x="1044" d="M-2 354q0 122 66 228.5t217 226.5q-21 78 -31 145t-10 125q0 197 90 309.5t248 112.5q131 0 212.5 -81t81.5 -212q0 -133 -88.5 -247.5t-271.5 -219.5q24 -109 57 -191t74 -138q43 42 80 99t70 130l182 -88q-35 -87 -87 -165.5t-122 -149.5q25 -27 58.5 -40.5t78.5 -15.5 l-41 -211q-87 8 -151.5 36t-110.5 79q-64 -58 -131 -86.5t-141 -28.5q-141 0 -235.5 109.5t-94.5 273.5zM219 371q0 -81 38 -133t95 -52q34 0 69 19.5t66 54.5q-49 65 -87 147.5t-64 180.5q-60 -48 -88.5 -100.5t-28.5 -116.5zM453 1102q0 -29 4.5 -74t13.5 -108 q103 73 153 152t50 169q0 47 -24.5 74.5t-65.5 27.5q-62 0 -96.5 -63.5t-34.5 -177.5z" />
<glyph unicode="'" horiz-adv-x="334" d="M86 879v557h164v-557h-164z" />
<glyph unicode="(" horiz-adv-x="592" d="M102 455q0 287 111.5 560t318.5 496h168q-213 -274 -317 -556t-104 -588q0 -123 24.5 -249t77.5 -274h-164q-58 150 -86.5 301.5t-28.5 309.5z" />
<glyph unicode=")" horiz-adv-x="592" d="M-127 -156q215 276 319.5 558.5t104.5 586.5q0 123 -24.5 249t-77.5 273h163q57 -147 85 -298.5t28 -311.5q0 -288 -111 -561t-319 -496h-168z" />
<glyph unicode="*" d="M152 1094l63 194l322 -164l-50 361h195l-49 -361l321 164l64 -194l-354 -62l256 -256l-170 -123l-166 322l-166 -322l-168 123l256 256z" />
<glyph unicode="+" horiz-adv-x="1706" d="M254 528v166h514v527h170v-527h514v-166h-514v-528h-170v528h-514z" />
<glyph unicode="," horiz-adv-x="440" d="M-127 -256l164 256h-72l47 233h230l-47 -231l-211 -258h-111z" />
<glyph unicode="-" horiz-adv-x="688" d="M45 446l41 193h465l-41 -193h-465z" />
<glyph unicode="." horiz-adv-x="440" d="M-45 0l49 229h238l-49 -229h-238z" />
<glyph unicode="/" horiz-adv-x="569" d="M-63 -190l526 1716h143l-526 -1716h-143z" />
<glyph unicode="0" horiz-adv-x="883" d="M10 356q0 48 5.5 107t17.5 133q29 193 70.5 349.5t89.5 258.5q68 145 163 219t211 74q147 0 225 -99t78 -284q0 -57 -4.5 -112.5t-13.5 -110.5q-30 -188 -71 -344t-87 -260q-70 -160 -163 -237t-216 -77q-152 0 -228.5 96.5t-76.5 286.5zM233 328q0 -74 24 -112t71 -38 q51 0 93 54.5t81 170.5q66 204 103.5 407t37.5 333q0 71 -23 108t-67 37q-52 0 -92.5 -49.5t-77.5 -157.5q-31 -93 -61.5 -220t-57.5 -273q-15 -82 -23 -148t-8 -112z" />
<glyph unicode="1" horiz-adv-x="883" d="M-18 0l43 199h211l196 940h-209l29 137q93 21 180.5 68.5t177.5 125.5h113l-268 -1271h233l-41 -199h-665z" />
<glyph unicode="2" horiz-adv-x="883" d="M-80 0l31 193q388 388 539 602t151 362q0 67 -30 105t-81 38q-70 0 -107 -58t-48 -187h-215q20 218 113 329t255 111q155 0 244.5 -93t89.5 -253q0 -102 -36 -201t-119 -221q-46 -66 -161 -191.5t-315 -326.5h447l-33 -209h-725z" />
<glyph unicode="3" horiz-adv-x="883" d="M-6 338q0 23 1.5 47.5t5.5 50.5h206q-2 -19 -3 -36.5t-1 -41.5q0 -85 29.5 -131.5t84.5 -46.5q70 0 119 92t49 228q0 90 -41 138t-129 58l37 176h17q125 0 186 71.5t61 217.5q0 68 -23 101.5t-69 33.5q-51 0 -90 -50t-57 -140h-207q29 190 122.5 291.5t239.5 101.5 q138 0 217.5 -90t79.5 -246q0 -154 -59.5 -267.5t-159.5 -150.5q51 -49 75 -113t24 -153q0 -231 -106.5 -368.5t-285.5 -137.5q-155 0 -239 94.5t-84 270.5z" />
<glyph unicode="4" horiz-adv-x="883" d="M-41 356l39 185l637 929h237l-198 -929h141l-39 -185h-141l-76 -356h-211l76 356h-465zM211 541h252l125 531q4 19 18.5 62t38.5 107q-35 -70 -58.5 -114.5t-31.5 -55.5z" />
<glyph unicode="5" horiz-adv-x="883" d="M4 317q0 25 1.5 52t5.5 55h214q-3 -34 -4.5 -57t-1.5 -39q0 -79 24 -115.5t76 -36.5q48 0 83.5 36.5t62.5 111.5q34 97 53 192.5t19 169.5q0 71 -24.5 103t-78.5 32q-36 0 -72 -22.5t-65 -63.5h-201l183 735h604l-41 -196h-410l-78 -309q39 24 82 36.5t88 12.5 q116 0 180 -81t64 -228q0 -320 -130.5 -525t-330.5 -205q-150 0 -226.5 86t-76.5 256z" />
<glyph unicode="6" horiz-adv-x="883" d="M27 350q0 46 5.5 105t16.5 139q31 197 71 351.5t87 258.5q66 145 160.5 218t216.5 73q144 0 220.5 -86t76.5 -248q0 -30 -8 -99l-1 -5h-218q1 20 4 52q4 45 4 56q0 62 -23.5 91.5t-71.5 29.5q-72 0 -124 -97.5t-109 -357.5q50 26 95.5 39t88.5 13q117 0 183.5 -81 t66.5 -224q0 -258 -125.5 -431.5t-310.5 -173.5q-150 0 -227.5 96t-77.5 281zM244 313q0 -65 27 -99t79 -34q37 0 64.5 20t48.5 62q32 63 52 148.5t20 164.5q0 61 -24.5 93t-70.5 32q-33 0 -68 -12.5t-73 -38.5q-28 -111 -41.5 -195.5t-13.5 -140.5z" />
<glyph unicode="7" horiz-adv-x="883" d="M33 0l579 1272h-426l43 198h678l-24 -120l-607 -1350h-243z" />
<glyph unicode="8" horiz-adv-x="883" d="M14 356q0 165 66 290.5t182 182.5q-33 57 -49 115t-16 123q0 197 100 315.5t266 118.5q141 0 221 -90t80 -248q0 -153 -60 -267t-159 -151q51 -49 74.5 -113t23.5 -153q0 -229 -106.5 -367.5t-284.5 -138.5q-154 0 -246 104t-92 279zM248 319q0 -64 28 -101.5t76 -37.5 q73 0 121.5 99t48.5 253q0 67 -27 102.5t-77 35.5q-74 0 -122 -98t-48 -253zM412 1008q0 -56 24.5 -86.5t69.5 -30.5q65 0 105 79.5t40 213.5q0 53 -24.5 82.5t-69.5 29.5q-65 0 -105 -78.5t-40 -209.5z" />
<glyph unicode="9" horiz-adv-x="883" d="M-8 307q0 32 7 98l1 7l219 -1q-1 -18 -4 -50q-4 -46 -4 -58q0 -62 23.5 -92.5t70.5 -30.5q73 0 124.5 97.5t109.5 357.5q-50 -26 -96 -38.5t-89 -12.5q-117 0 -183.5 80.5t-66.5 224.5q0 258 126 431t311 173q149 0 227 -96t78 -281q0 -46 -5.5 -105t-17.5 -139 q-30 -197 -70 -351.5t-87 -258.5q-66 -144 -160.5 -216.5t-216.5 -72.5q-144 0 -220.5 86.5t-76.5 247.5zM338 891q0 -61 24.5 -93t69.5 -32q33 0 68.5 13t72.5 38q28 112 42 196t14 140q0 66 -27 99.5t-80 33.5q-37 0 -64 -19.5t-48 -62.5q-33 -63 -52.5 -148.5 t-19.5 -164.5z" />
<glyph unicode=":" horiz-adv-x="487" d="M-18 0l49 229h239l-47 -229h-241zM102 567l48 228h241l-49 -228h-240z" />
<glyph unicode=";" horiz-adv-x="487" d="M-96 -256l164 256h-82l47 233h241l-49 -231l-211 -258h-110zM104 567l48 228h241l-49 -228h-240z" />
<glyph unicode="&#x3c;" horiz-adv-x="1706" d="M264 530v160l1178 486v-185l-934 -381l934 -381v-182z" />
<glyph unicode="=" horiz-adv-x="1706" d="M254 322v165h1198v-165h-1198zM254 733v168h1198v-168h-1198z" />
<glyph unicode="&#x3e;" horiz-adv-x="1706" d="M264 47v182l934 381l-934 381v185l1178 -486v-160z" />
<glyph unicode="?" horiz-adv-x="707" d="M66 0l49 229h237l-47 -229h-239zM121 1239q36 129 123 197.5t215 68.5q140 0 230.5 -78t90.5 -198q0 -134 -181 -330q-33 -36 -50 -55q-100 -113 -144 -205.5t-55 -200.5h-196q13 120 50 222t101 198q32 47 102 127q24 27 36 42l6 7q102 122 102 195q0 43 -27 68.5 t-73 25.5q-54 0 -93 -38t-59 -109z" />
<glyph unicode="@" horiz-adv-x="2048" d="M98 522q0 165 52 313.5t153 272.5q147 179 353.5 272t459.5 93q166 0 315 -45.5t255 -127.5q132 -102 198 -235.5t66 -300.5q0 -162 -65 -302t-185 -237q-69 -55 -150 -83.5t-168 -28.5q-106 0 -157 40.5t-51 125.5v4q-55 -87 -128 -127.5t-176 -40.5q-152 0 -232.5 86.5 t-80.5 249.5q0 233 138 395t333 162q89 0 149 -34.5t99 -107.5l55 107h154l-148 -586q-1 -5 -2 -12q-6 -28 -6 -37q0 -38 26.5 -61t69.5 -23q51 0 107.5 30.5t105.5 84.5q72 76 110 177.5t38 215.5q0 253 -187 411t-489 158q-138 0 -256 -31t-215 -94q-181 -113 -279 -291 t-98 -395q0 -312 209.5 -499t558.5 -187q166 0 323.5 49t291.5 142l67 -99q-149 -113 -318.5 -170t-355.5 -57q-192 0 -351 48t-281 142q-155 118 -231.5 275.5t-76.5 357.5zM741 444q0 -98 45.5 -151t128.5 -53q90 0 163.5 66.5t99.5 172.5l55 228q-14 84 -61.5 130 t-122.5 46q-127 0 -217.5 -128.5t-90.5 -310.5z" />
<glyph unicode="A" horiz-adv-x="903" d="M-109 0l592 1485h265v-1485h-238l12 326h-268l-119 -326h-244zM332 551h198l27 666z" />
<glyph unicode="B" horiz-adv-x="1016" d="M-27 0l316 1485h211q247 0 359 -84t112 -266q0 -139 -69.5 -236t-201.5 -143q85 -54 123.5 -124t38.5 -169q0 -235 -138 -349t-421 -114h-330zM268 215h99q125 0 192.5 64.5t67.5 183.5q0 105 -61.5 154t-198.5 53zM410 881q9 -1 20.5 -1.5t32.5 -0.5q129 0 199.5 63.5 t70.5 179.5q0 84 -49.5 124t-155.5 40h-30z" />
<glyph unicode="C" horiz-adv-x="1022" d="M41 412q0 223 50 437.5t138 377.5q78 141 184 216t230 75q162 0 258 -108t96 -290q0 -32 -1.5 -64.5t-4.5 -66.5h-239q0 6 1 18q7 62 7 87q0 100 -32.5 151t-96.5 51t-117 -58t-98 -177q-60 -161 -94.5 -340.5t-34.5 -329.5q0 -107 31.5 -157t99.5 -50q80 0 142 82 t97 238h238q-36 -245 -170.5 -391t-321.5 -146q-179 0 -270.5 112.5t-91.5 332.5z" />
<glyph unicode="D" horiz-adv-x="1053" d="M-27 0l316 1485h200q287 0 401 -111t114 -383q0 -237 -64.5 -458t-165.5 -345q-85 -104 -202 -146t-367 -42h-232zM270 213q9 0 23.5 -1t21.5 -1q111 0 176.5 34t110.5 113q65 114 104 289.5t39 358.5q0 140 -52.5 202t-172.5 62h-24z" />
<glyph unicode="E" horiz-adv-x="922" d="M-27 0l316 1485h690l-45 -217h-438l-84 -396h325l-47 -215h-325l-93 -442h461l-47 -215h-713z" />
<glyph unicode="F" horiz-adv-x="842" d="M-27 0l316 1485h690l-45 -217h-438l-84 -396h325l-47 -215h-325l-142 -657h-250z" />
<glyph unicode="G" horiz-adv-x="1022" d="M41 412q0 223 50 437.5t138 377.5q77 139 182 215t220 76q182 0 273 -109.5t91 -327.5q0 -27 -3 -85l-1 -7h-239q3 33 4.5 59t1.5 46q0 101 -32 151.5t-95 50.5q-64 0 -117 -58t-98 -177q-60 -160 -93.5 -331t-33.5 -314q0 -122 35 -181t108 -59q68 0 115 55.5t69 163.5 l33 156h-168l39 182h416l-156 -733h-104l-23 104q-50 -66 -120 -101.5t-152 -35.5q-163 0 -251.5 115.5t-88.5 329.5z" />
<glyph unicode="H" horiz-adv-x="1073" d="M-27 0l316 1485h252l-127 -596h307l127 596h252l-316 -1485h-252l144 672h-307l-144 -672h-252z" />
<glyph unicode="I" horiz-adv-x="504" d="M-33 0l316 1485h252l-316 -1485h-252z" />
<glyph unicode="J" horiz-adv-x="639" d="M-96 23l45 200q32 -9 52.5 -12.5t37.5 -3.5q57 0 88.5 40.5t58.5 168.5l226 1069h254l-240 -1118q-50 -230 -123.5 -307.5t-218.5 -77.5q-40 0 -84.5 10t-95.5 31z" />
<glyph unicode="K" horiz-adv-x="928" d="M-25 0l312 1485h245l-102 -500l358 500h254l-405 -572l145 -913h-241l-101 731l-86 -121l-129 -610h-250z" />
<glyph unicode="L" horiz-adv-x="838" d="M-29 0l316 1485h254l-271 -1270h461l-47 -215h-713z" />
<glyph unicode="M" horiz-adv-x="1315" d="M-29 0l316 1485h315l12 -768v-31q0 -65 -5.5 -134t-16.5 -144q20 86 44 161t52 140l346 776h307l-315 -1485h-207l225 1009q4 18 49 185l17 61q-44 -111 -91 -221q-5 -13 -7 -18l-457 -1016h-121l-10 1006q0 66 2 128t6 121q-8 -68 -17 -129t-20 -114l-207 -1012h-217z " />
<glyph unicode="N" horiz-adv-x="1083" d="M-29 0l316 1485h233l152 -834q10 -57 15 -119.5t5 -132.5h10q0 98 5 172t14 121l153 793h234l-315 -1485h-197l-162 873q-11 60 -16.5 132t-5.5 156v39h-9q0 -100 -5.5 -184t-16.5 -139l-176 -877h-234z" />
<glyph unicode="O" horiz-adv-x="1044" d="M41 416q0 223 50 437t138 374q80 143 185.5 217t230.5 74q175 0 265.5 -120.5t90.5 -350.5q0 -86 -10.5 -180t-32.5 -199q-32 -153 -78.5 -274.5t-107.5 -213.5q-68 -101 -166 -157t-209 -56q-175 0 -265.5 114t-90.5 335zM287 385q0 -107 29.5 -153t97.5 -46 q65 0 118.5 58t98.5 178q57 153 90 331t33 328q0 111 -31 163t-96 52q-62 0 -114 -57.5t-97 -177.5q-61 -159 -95 -339t-34 -337z" />
<glyph unicode="P" horiz-adv-x="1047" d="M-23 0l316 1485h260q243 0 360 -93t117 -286q0 -231 -134.5 -352t-391.5 -121h-144l-137 -633h-246zM410 842h122q119 0 190 69.5t71 186.5q0 89 -49.5 134.5t-147.5 45.5h-100z" />
<glyph unicode="Q" horiz-adv-x="1044" d="M41 412q0 223 50 437.5t138 377.5q78 142 184 216.5t232 74.5q170 0 263 -118.5t93 -334.5q0 -248 -58 -474.5t-167 -406.5q33 -42 71.5 -63t82.5 -21h12l-37 -198h-6q-75 0 -137.5 35t-120.5 110q-52 -40 -115 -60t-135 -20q-170 0 -260 114t-90 331zM287 385 q0 -108 28.5 -153.5t96.5 -45.5q32 0 61 12.5t51 37.5q-11 21 -27.5 35.5t-35.5 21.5l45 190q38 -6 68.5 -22.5t52.5 -42.5q61 166 94 337.5t33 325.5q0 111 -31 163t-96 52q-62 0 -114 -57.5t-97 -177.5q-61 -161 -95 -341.5t-34 -334.5z" />
<glyph unicode="R" horiz-adv-x="1038" d="M-25 0l314 1485h250q233 0 346.5 -93.5t113.5 -285.5q0 -166 -77.5 -288t-210.5 -165l96 -653h-238l-80 633q-12 0 -35 -1t-34 -1q-12 0 -32.5 1t-29.5 1l-135 -633h-248zM403 842h119q112 0 179 69.5t67 186.5q0 90 -46.5 135t-139.5 45h-86z" />
<glyph unicode="S" horiz-adv-x="948" d="M14 360q0 18 0.5 27t1.5 18l228 -12v-24q0 -92 40.5 -141.5t114.5 -49.5q70 0 117 54.5t47 136.5q0 59 -34.5 132.5t-133.5 211.5q-110 153 -152 250.5t-42 185.5q0 159 106.5 261.5t272.5 102.5q162 0 254 -101.5t92 -281.5v-26l-221 12q0 91 -36 140t-102 49 q-63 0 -103 -42t-40 -108q0 -71 94 -204q34 -48 51 -74q10 -14 28 -42q198 -293 198 -448q0 -188 -113.5 -305t-296.5 -117q-172 0 -271.5 105.5t-99.5 289.5z" />
<glyph unicode="T" horiz-adv-x="846" d="M139 1266l47 219h772l-45 -219h-254l-268 -1260h-244l267 1260h-275z" />
<glyph unicode="U" horiz-adv-x="1038" d="M55 305q0 42 6.5 92.5t18.5 110.5l205 977h245l-213 -1018q-12 -59 -18 -100.5t-6 -67.5q0 -66 30.5 -97.5t94.5 -31.5q70 0 109 50.5t69 193.5l219 1071h248l-225 -1079q-53 -248 -145 -343.5t-269 -95.5q-184 0 -276.5 84.5t-92.5 253.5z" />
<glyph unicode="V" horiz-adv-x="905" d="M147 0l19 1485h242l-35 -923q-2 -37 -9 -109.5t-18 -165.5q22 96 39 159t33 105l358 934h260l-626 -1485h-263z" />
<glyph unicode="W" horiz-adv-x="1278" d="M133 0l8 1485h219l-22 -858q-1 -54 -7.5 -118t-19.5 -149q20 89 39.5 165t32.5 118l279 842h186l-19 -867v-30q-5 -137 -10 -227q17 93 31 157t27 107l264 860h237l-518 -1485h-201v774q0 94 6 176t17 155q-20 -110 -36.5 -187.5t-27.5 -104.5l-290 -813h-195z" />
<glyph unicode="X" horiz-adv-x="848" d="M-143 0l444 799l-115 686h228l49 -402q2 -18 3 -36t1 -35q0 -23 -3 -76q-1 -8 -1 -12q9 53 20.5 95t24.5 66l217 400h268l-428 -713l135 -772h-231l-61 456q-3 27 -4 43.5t-1 30.5q0 23 2 48l4 50q-10 -56 -23.5 -100t-31.5 -75l-248 -453h-249z" />
<glyph unicode="Y" horiz-adv-x="788" d="M106 0l132 635l-125 850h237l47 -491q3 -29 4.5 -57t1.5 -54q0 -14 -0.5 -28.5t-3.5 -45.5q10 52 23.5 96t32.5 80l250 500h256l-480 -871l-125 -614h-250z" />
<glyph unicode="Z" horiz-adv-x="797" d="M-123 0l45 227l699 1041h-418l37 217h692l-49 -217l-695 -1041h469l-45 -227h-735z" />
<glyph unicode="[" horiz-adv-x="602" d="M-47 -143l346 1628h426l-20 -90h-232l-307 -1448h246l-21 -90h-438z" />
<glyph unicode="\" horiz-adv-x="569" d="M109 1526h141l153 -1716h-143z" />
<glyph unicode="]" horiz-adv-x="602" d="M-145 -143l18 90h233l308 1448h-246l18 90h441l-346 -1628h-426z" />
<glyph unicode="^" horiz-adv-x="2048" d="M418 899l497 561h218l495 -561h-207l-397 397l-399 -397h-207z" />
<glyph unicode="_" d="M0 -311h1024v-172h-1024v172z" />
<glyph unicode="`" d="M354 1571h199l211 -348h-109z" />
<glyph unicode="a" horiz-adv-x="909" d="M-29 225q0 177 155.5 299t430.5 158q7 32 10.5 63.5t3.5 59.5q0 70 -27 103.5t-83 33.5q-53 0 -88 -39.5t-45 -111.5h-222q27 158 117 239.5t238 81.5q157 0 247.5 -79t90.5 -216q0 -25 -3.5 -53.5t-9.5 -58.5l-112 -522q-7 -32 -11 -79t-4 -104h-206l-9 84 q-62 -58 -122 -85.5t-123 -27.5q-99 0 -163.5 72t-64.5 182zM197 264q0 -50 28 -80t74 -30q39 0 81 26.5t89 81.5l55 268q-159 -39 -243 -107.5t-84 -158.5z" />
<glyph unicode="b" horiz-adv-x="936" d="M-39 0l315 1485h228l-96 -455q41 39 84.5 57.5t91.5 18.5q123 0 193.5 -96.5t70.5 -266.5q0 -136 -38 -281.5t-103 -262.5q-62 -107 -141.5 -163t-170.5 -56q-57 0 -103.5 25t-84.5 77l-19 -82h-227zM240 238q25 -35 55.5 -53.5t60.5 -18.5q51 0 90.5 34.5t71.5 106.5 q48 104 76.5 232t28.5 235q0 74 -25.5 112t-75.5 38q-70 0 -120.5 -82t-88.5 -258z" />
<glyph unicode="c" horiz-adv-x="879" d="M4 344q0 192 62 370.5t163 284.5q53 56 120 85.5t140 29.5q143 0 222.5 -90t79.5 -252q0 -25 -0.5 -37.5t-2.5 -23.5h-223q2 12 3 27t1 42q0 71 -23 109.5t-65 38.5q-49 0 -88.5 -44.5t-77.5 -142.5q-43 -112 -66.5 -225.5t-23.5 -206.5q0 -73 23 -110t69 -37 q54 0 102.5 58.5t74.5 156.5h229q-45 -189 -156 -297.5t-256 -108.5q-152 0 -229.5 94.5t-77.5 278.5z" />
<glyph unicode="d" horiz-adv-x="928" d="M0 346q0 137 39 285t104 262q63 108 145 164.5t177 56.5q50 0 95 -26.5t83 -77.5l100 475h228l-316 -1485h-227l12 59q-43 -40 -86.5 -59.5t-89.5 -19.5q-122 0 -193 98.5t-71 267.5zM227 317q0 -75 25 -113t74 -38q70 0 121.5 83t89.5 259l73 346q-29 36 -60 54t-63 18 q-45 0 -84 -35t-71 -107q-48 -103 -76.5 -231.5t-28.5 -235.5z" />
<glyph unicode="e" horiz-adv-x="879" d="M4 344q0 192 62 370.5t163 284.5q53 56 120 85.5t140 29.5q142 0 222 -89.5t80 -250.5q0 -61 -8.5 -125t-24.5 -129h-508q-12 -68 -18.5 -122t-6.5 -91q0 -73 23.5 -109t70.5 -36q54 0 99.5 56t75.5 159h229q-46 -190 -156 -298t-256 -108q-152 0 -229.5 94.5 t-77.5 278.5zM301 700h258q6 27 9 51.5t3 49.5q0 59 -23 91t-67 32q-60 0 -105.5 -56.5t-74.5 -167.5z" />
<glyph unicode="f" horiz-adv-x="559" d="M-2 0l195 920h-127l34 165h127l31 144q32 149 89 209.5t163 60.5q39 0 81.5 -8.5t88.5 -26.5l-37 -173q-26 8 -44 12t-32 4q-68 0 -105 -186q-5 -24 -7 -35l145 -1l-37 -165h-143l-195 -920h-227z" />
<glyph unicode="g" horiz-adv-x="885" d="M-152 -115q0 63 44.5 108t134.5 73q-32 29 -47 59t-15 61q0 60 40 102t122 68q-31 38 -46 87t-15 114q0 137 53 266.5t139 204.5q48 42 107 64t124 22q83 0 140 -30t90 -91q35 56 85 83.5t116 27.5h8l-29 -182q-14 4 -28 6t-29 2q-24 0 -47 -7t-45 -20v-26 q0 -255 -118.5 -424.5t-287.5 -169.5q-25 0 -54 5t-61 15q-25 -8 -38 -21.5t-13 -31.5q0 -30 20 -46t76 -30l187 -47q119 -31 172 -83.5t53 -137.5q0 -121 -112.5 -196t-299.5 -75q-192 0 -309 70t-117 180zM61 -88q0 -56 63 -90.5t169 -34.5q93 0 142.5 23t49.5 65 q0 47 -79 77.5t-271 55.5q-36 -18 -55 -42.5t-19 -53.5zM268 563q0 -43 18 -65.5t52 -22.5q30 0 58.5 21t49.5 59q39 70 60.5 144t21.5 135q0 42 -18.5 67t-50.5 25q-34 0 -63.5 -27.5t-57.5 -83.5q-32 -67 -51 -135.5t-19 -116.5z" />
<glyph unicode="h" horiz-adv-x="934" d="M-39 0l313 1485h232l-103 -481q59 50 116 74t118 24q99 0 150 -52.5t51 -154.5q0 -36 -6 -81t-19 -101l-151 -713h-230l164 764q5 26 7.5 47t2.5 39q0 42 -21 66t-59 24q-34 0 -71.5 -19.5t-81.5 -60.5l-183 -860h-229z" />
<glyph unicode="i" horiz-adv-x="463" d="M-39 0l232 1085h227l-230 -1085h-229zM233 1270l48 215h225l-45 -215h-228z" />
<glyph unicode="j" horiz-adv-x="463" d="M-229 -322l47 187q6 -1 12.5 -1.5t17.5 -0.5q86 0 125 183v1l222 1038h227l-225 -1065q-48 -223 -111 -297.5t-180 -74.5q-31 0 -65 7.5t-70 22.5zM233 1270l48 215h225l-45 -215h-228z" />
<glyph unicode="k" horiz-adv-x="874" d="M-39 0l315 1485h228l-160 -748l336 348h266l-342 -358l123 -727h-215l-92 575l-141 -145l-91 -430h-227z" />
<glyph unicode="l" horiz-adv-x="461" d="M-39 0l313 1485h232l-316 -1485h-229z" />
<glyph unicode="m" horiz-adv-x="1407" d="M-39 0l232 1085h196l-14 -104q69 63 131.5 92t128.5 29q78 0 127 -33.5t67 -99.5q77 70 143 101.5t134 31.5q100 0 151.5 -53t51.5 -154q0 -33 -6.5 -75.5t-20.5 -106.5l-149 -713h-230l162 764q5 22 7.5 44t2.5 44q0 42 -21.5 65t-62.5 23q-30 0 -65.5 -19.5 t-81.5 -60.5l-182 -860h-230l164 764q4 18 6 35t2 41q0 47 -22 73.5t-62 26.5q-30 0 -66 -19.5t-81 -60.5l-183 -860h-229z" />
<glyph unicode="n" horiz-adv-x="934" d="M-39 0l232 1085h196l-14 -104q71 63 133.5 92t128.5 29q98 0 149.5 -53t51.5 -154q0 -36 -6 -81t-19 -101l-151 -713h-230l164 764q5 26 7.5 47t2.5 39q0 42 -21 66t-59 24q-34 0 -71.5 -19.5t-81.5 -60.5l-183 -860h-229z" />
<glyph unicode="o" horiz-adv-x="885" d="M4 346q0 190 62 368.5t163 284.5q53 56 120 85.5t140 29.5q147 0 227.5 -98t80.5 -277q0 -138 -40.5 -287t-109.5 -264q-63 -104 -146.5 -160.5t-176.5 -56.5q-163 0 -241.5 92.5t-78.5 282.5zM225 307q0 -73 22.5 -109t67.5 -36q41 0 79.5 35.5t66.5 99.5 q51 116 79.5 243.5t28.5 233.5q0 79 -20.5 114.5t-67.5 35.5q-53 0 -90 -40.5t-76 -142.5q-43 -114 -66.5 -228t-23.5 -206z" />
<glyph unicode="p" horiz-adv-x="936" d="M-113 -356l306 1441h198l-8 -88q42 56 91 82.5t110 26.5q122 0 193 -96t71 -265q0 -138 -38 -287t-103 -263q-62 -108 -142 -163t-176 -55q-51 0 -96.5 26.5t-83.5 78.5l-94 -438h-228zM242 238q22 -35 52 -53.5t64 -18.5q49 0 88 34.5t72 106.5q48 104 76.5 232 t28.5 235q0 74 -25.5 112t-75.5 38q-70 0 -119 -80t-88 -260z" />
<glyph unicode="q" horiz-adv-x="928" d="M0 348q0 135 38.5 282t104.5 263q63 109 143.5 165t174.5 56q60 0 105.5 -26t76.5 -78l16 75h228l-307 -1441h-226l86 415q-40 -37 -83.5 -55t-92.5 -18q-123 0 -193.5 96.5t-70.5 265.5zM227 317q0 -75 25 -113t74 -38q70 0 121.5 83t89.5 259l73 346q-33 36 -64 54 t-61 18q-45 0 -82.5 -35t-70.5 -107q-48 -103 -76.5 -231.5t-28.5 -235.5z" />
<glyph unicode="r" horiz-adv-x="659" d="M-39 0l232 1085h196l-18 -112q58 68 118 100.5t125 32.5q18 0 41 -4.5t51 -13.5l-42 -209q-37 15 -68.5 22.5t-56.5 7.5q-82 0 -128.5 -50.5t-72.5 -172.5l-148 -686h-229z" />
<glyph unicode="s" horiz-adv-x="786" d="M-22 336l192 30q5 -105 39 -158.5t96 -53.5q51 0 81 30.5t30 83.5q0 65 -115 201q-42 50 -65 80q-66 82 -98 153t-32 134q0 124 78 198t209 74q150 0 235 -83t91 -234l-182 -23q-3 84 -36.5 130t-92.5 46q-43 0 -69 -25.5t-26 -68.5q0 -61 97 -178q18 -23 29 -36 q4 -5 13 -16q169 -212 169 -339q0 -141 -86 -223.5t-232 -82.5q-141 0 -229.5 98t-95.5 263z" />
<glyph unicode="t" horiz-adv-x="590" d="M53 207q0 27 4.5 61.5t12.5 71.5l129 573h-136l39 172h134l65 295h223l-65 -295h159l-38 -172h-160l-113 -514q-16 -72 -20 -98t-4 -41q0 -48 32 -69t107 -21h12l-41 -180q-2 0 -6 -1q-42 -3 -63 -3q-135 0 -203 55.5t-68 165.5z" />
<glyph unicode="u" horiz-adv-x="934" d="M16 180q0 33 6.5 76t20.5 106l154 723h227l-164 -776l-1 -6q-11 -55 -11 -78q0 -42 21 -66t59 -24q35 0 73 19t80 59l185 872h229l-233 -1085h-195l12 94q-72 -64 -133.5 -92.5t-126.5 -28.5q-99 0 -151 53t-52 154z" />
<glyph unicode="v" horiz-adv-x="758" d="M80 1085h209l-8 -587q0 -43 -7.5 -106t-21.5 -150q23 96 41.5 160t32.5 96l243 587h219l-479 -1085h-213z" />
<glyph unicode="w" horiz-adv-x="1163" d="M82 0l12 1085h205l-29 -612q-3 -63 -10 -114t-18 -94q15 60 32 113t33 91l268 616h144l-12 -585q0 -35 -6.5 -93.5t-18.5 -142.5q14 72 29.5 128.5t29.5 94.5l242 598h213l-469 -1085h-178v528q0 43 5.5 102.5t16.5 131.5q-21 -84 -38 -136.5t-33 -86.5l-248 -539h-170z " />
<glyph unicode="x" horiz-adv-x="760" d="M-141 0l391 602l-148 483h215l66 -233q7 -25 11 -50.5t5 -49.5q10 30 19 52.5t16 34.5l154 246h231l-346 -512l131 -573h-211l-59 307q-2 16 -3 34.5t-1 37.5v37q-11 -38 -21 -63t-20 -41l-191 -312h-239z" />
<glyph unicode="y" horiz-adv-x="780" d="M-164 -330l41 176q24 -4 46 -6t44 -2q81 0 114.5 42t33.5 147v30l-31 1028h215v-602q0 -32 -7.5 -99.5t-21.5 -158.5q18 81 37 146.5t37 105.5l260 608h219l-544 -1216q-56 -124 -118.5 -175.5t-154.5 -51.5q-32 0 -74.5 7t-95.5 21z" />
<glyph unicode="z" horiz-adv-x="840" d="M-86 0l37 178l592 737h-402l35 170h655l-36 -170l-590 -737h434l-39 -178h-686z" />
<glyph unicode="{" d="M162 442v179q7 0 21.5 -1.5t21.5 -1.5q126 0 178.5 59t52.5 202v247q0 145 23 206.5t80 94.5q44 27 109 38.5t181 11.5h45v-179q-8 0 -24 1t-23 1q-109 0 -147.5 -41.5t-38.5 -173.5v-241q0 -155 -44 -220.5t-159 -93.5q114 -27 158.5 -92.5t44.5 -220.5v-240 q0 -132 39.5 -174.5t148.5 -42.5q7 0 22 1t23 1v-176h-63q-102 0 -165.5 12t-106.5 37q-57 34 -80 96t-23 203v248q0 144 -52.5 203t-178.5 59q-7 0 -21.5 -1t-21.5 -1z" />
<glyph unicode="|" d="M424 -483v2048h178v-2048h-178z" />
<glyph unicode="}" d="M152 -238q8 0 23 -1t22 -1q109 0 147.5 42t38.5 175v240q0 153 45 219t160 94q-115 28 -160 93.5t-45 220.5v241q0 132 -38 173.5t-146 41.5q-7 0 -23 -1t-24 -1v179h45q115 0 179.5 -11.5t108.5 -38.5q57 -33 80 -95t23 -206v-247q0 -144 52 -202.5t179 -58.5 q6 0 21 1.5t22 1.5v-179q-7 0 -21.5 1t-21.5 1q-126 0 -178.5 -59t-52.5 -203v-248q0 -143 -23 -204t-80 -95q-43 -26 -108 -37.5t-180 -11.5h-45v176z" />
<glyph unicode="~" horiz-adv-x="1706" d="M178 434v187q106 72 202 107.5t185 35.5q62 0 125.5 -12t168.5 -48q13 -4 42 -15q164 -58 250 -58q85 0 177 37t202 116v-184q-103 -71 -197.5 -106t-183.5 -35q-44 0 -92.5 8.5t-98.5 26.5q-25 8 -76 26q-212 74 -319 74q-82 0 -174 -38t-211 -122z" />
<glyph unicode="&#xa1;" horiz-adv-x="530" d="M0 0l268 1049h154l-166 -1049h-256zM258 1255l49 230h238l-49 -230h-238z" />
<glyph unicode="&#xa2;" horiz-adv-x="883" d="M12 344q0 191 62 369t164 284q52 56 116 84.5t138 28.5l63 252h127l-68 -268q93 -31 139 -110t46 -208q0 -26 -0.5 -39.5t-1.5 -25.5h-205q2 24 3 36.5t1 20.5q0 52 -12.5 87.5t-36.5 53.5l-182 -737q57 8 96.5 59t60.5 146h209q-44 -190 -151.5 -295.5t-259.5 -110.5 l-64 -256h-133l74 277q-93 34 -139 121.5t-46 230.5zM215 330q0 -61 13 -96t40 -50l185 738q-44 -5 -80 -47.5t-72 -133.5q-41 -107 -63.5 -215t-22.5 -196z" />
<glyph unicode="&#xa3;" horiz-adv-x="883" d="M-98 -30l41 225q111 32 175.5 144t86.5 310h-160l33 158h133q10 395 91.5 541.5t275.5 146.5q149 0 232 -92t83 -258q0 -20 -1.5 -41.5t-5.5 -44.5h-212q4 23 6 46t2 46q0 76 -26.5 116t-75.5 40q-111 0 -136 -367q-6 -85 -9 -133h212l-33 -158h-194 q-14 -124 -49.5 -228.5t-96.5 -197.5q35 -20 66 -30.5t57 -10.5q72 0 112 54.5t46 158.5h190q-13 -208 -92.5 -317t-218.5 -109q-61 0 -125.5 27.5t-140.5 85.5q-67 -51 -131 -78t-135 -34z" />
<glyph unicode="&#xa4;" horiz-adv-x="1241" d="M76 432l203 205q-40 53 -60 115.5t-20 132.5q0 69 20 131.5t60 116.5l-203 204l92 93l203 -203q55 41 117 61.5t133 20.5t134 -20.5t117 -61.5l203 203l94 -93l-204 -204q39 -54 59 -116.5t20 -131.5q0 -70 -20 -132.5t-59 -115.5l204 -205l-94 -92l-203 205 q-57 -42 -118 -62t-131 -20q-72 0 -135 20.5t-117 61.5l-203 -205zM332 885q0 -120 84.5 -204.5t206.5 -84.5q121 0 205.5 84.5t84.5 204.5q0 119 -85.5 205t-204.5 86q-120 0 -205.5 -86t-85.5 -205z" />
<glyph unicode="&#xa5;" horiz-adv-x="799" d="M-8 608l22 103h232l-21 141h-180l23 102h141l-76 514h227l45 -484q4 -34 5.5 -64t1.5 -58q0 -25 -0.5 -37.5t-1.5 -23.5q9 50 22.5 93.5t32.5 80.5l250 493h246l-283 -514h147l-22 -102h-185l-79 -141h235l-22 -103h-269l-127 -608h-231l127 608h-260z" />
<glyph unicode="&#xa6;" d="M424 -350v758h178v-758h-178zM424 674v758h178v-758h-178z" />
<glyph unicode="&#xa7;" d="M66 4l141 102q36 -57 78 -86.5t88 -29.5q52 0 82 30t30 82q0 66 -124 262q-5 8 -7 11q-20 32 -57 90q-164 256 -164 362q0 108 70 170t196 66q-33 51 -48 95t-15 87q0 123 81.5 194.5t221.5 71.5q95 0 167.5 -43t127.5 -131l-139 -98q-47 58 -82 80t-78 22q-46 0 -73 -27 t-27 -73q0 -56 96 -196q38 -56 59 -89q122 -188 157.5 -271.5t35.5 -152.5q0 -102 -63.5 -167.5t-162.5 -65.5q-7 0 -18.5 1t-25.5 3q34 -60 50.5 -113t16.5 -104q0 -122 -80 -196t-213 -74q-100 0 -179 46.5t-142 141.5zM330 844q0 -28 15 -64t58 -110q87 -144 127 -184 t82 -40q32 0 54 20.5t22 49.5q0 37 -24 90.5t-86 153.5q-62 99 -95.5 129.5t-70.5 30.5q-34 0 -58 -22.5t-24 -53.5z" />
<glyph unicode="&#xa8;" d="M373 1282l43 209h184l-45 -209h-182zM702 1282l43 209h185l-45 -209h-183z" />
<glyph unicode="&#xa9;" horiz-adv-x="1706" d="M113 731q0 145 57 280.5t164 243.5q105 107 235.5 161t282.5 54t286 -55t240 -162q105 -105 160 -238.5t55 -283.5q0 -153 -54.5 -286t-158.5 -234q-108 -107 -244.5 -164t-283.5 -57q-146 0 -280 56.5t-240 162.5q-107 106 -163 240.5t-56 281.5zM223 731 q0 -126 48 -240t139 -204q90 -91 204.5 -139t239.5 -48t240 48.5t209 140.5q89 88 135.5 200.5t46.5 241.5t-47 243.5t-135 203.5q-91 90 -205 137t-244 47t-243 -46.5t-201 -135.5q-90 -92 -138.5 -208t-48.5 -241zM457 725q0 208 109.5 331.5t291.5 123.5q147 0 243 -77 t105 -200h-166q-10 74 -60 114t-130 40q-99 0 -155 -86.5t-56 -239.5q0 -152 57.5 -234.5t163.5 -82.5q80 0 129 43.5t60 124.5h165q-7 -135 -106.5 -217t-253.5 -82q-183 0 -290 119t-107 323z" />
<glyph unicode="&#xaa;" horiz-adv-x="682" d="M-23 883q0 124 117 209t324 111q5 20 7.5 41.5t2.5 43.5q0 50 -20 73t-62 23q-41 0 -66.5 -27t-34.5 -79h-165q20 111 87.5 168t178.5 57q118 0 186 -55.5t68 -151.5q0 -15 -2.5 -34t-7.5 -43l-84 -367q-5 -20 -7.5 -52.5t-2.5 -74.5h-156l-6 59q-47 -40 -92.5 -59.5 t-91.5 -19.5q-74 0 -123.5 50.5t-49.5 127.5zM147 909q0 -35 21.5 -55t56.5 -20q29 0 60.5 18.5t66.5 56.5l41 187q-118 -27 -182 -75.5t-64 -111.5z" />
<glyph unicode="&#xab;" horiz-adv-x="874" d="M20 543l240 297h178l-239 -297l155 -297h-176zM391 543l240 297h176l-238 -297l156 -297h-178z" />
<glyph unicode="&#xac;" horiz-adv-x="1706" d="M254 696v166h1198v-502h-166v336h-1032z" />
<glyph unicode="&#xad;" horiz-adv-x="688" d="M45 446l41 193h465l-41 -193h-465z" />
<glyph unicode="&#xae;" horiz-adv-x="1706" d="M113 731q0 147 57.5 284t165.5 245q104 104 234.5 157t281.5 53q153 0 288.5 -56t241.5 -165q103 -104 157 -236.5t54 -281.5q0 -153 -55.5 -287t-161.5 -237q-108 -105 -243 -161t-281 -56q-147 0 -282.5 57.5t-241.5 165.5q-105 106 -160 239t-55 279zM223 731 q0 -125 47 -238.5t136 -203.5q90 -91 204 -140t234 -49q130 0 246.5 47t209.5 138q89 86 137 198.5t48 237.5q0 133 -45.5 247.5t-134.5 205.5q-93 92 -207.5 140t-243.5 48t-240 -45.5t-200 -134.5q-92 -94 -141.5 -210t-49.5 -241zM551 330v829h319q173 0 262 -57t89 -168 q0 -91 -48 -150.5t-137 -78.5l185 -375h-199l-164 346h-129v-346h-178zM729 786h117q100 0 146 30.5t46 96.5q0 69 -48 101.5t-152 32.5h-109v-261z" />
<glyph unicode="&#xaf;" d="M367 1317l28 139h541l-31 -139h-538z" />
<glyph unicode="&#xb0;" horiz-adv-x="674" d="M43 1163q0 125 86 211t209 86q121 0 208 -87t87 -210q0 -121 -87 -208t-210 -87t-208 85.5t-85 209.5zM152 1165q0 -76 54.5 -131t131.5 -55t130.5 54.5t53.5 131.5t-53.5 131t-130.5 54t-131.5 -54t-54.5 -131z" />
<glyph unicode="&#xb1;" horiz-adv-x="1706" d="M254 14v168h1198v-168h-1198zM254 707v165h514v334h170v-334h514v-165h-514v-334h-170v334h-514z" />
<glyph unicode="&#xb2;" horiz-adv-x="582" d="M-53 588l20 114q261 239 359 365.5t98 214.5q0 40 -20 63t-54 23q-47 0 -71.5 -35.5t-30.5 -111.5h-144q14 131 75.5 197.5t168.5 66.5q102 0 161.5 -55.5t59.5 -151.5q0 -61 -23.5 -120t-78.5 -134q-31 -39 -106 -114t-207 -197h292l-20 -125h-479z" />
<glyph unicode="&#xb3;" horiz-adv-x="582" d="M-4 791q0 10 0.5 21.5t4.5 37.5l136 -1q-2 -11 -3 -21.5t-1 -24.5q0 -51 20 -79t56 -28q46 0 78 54.5t32 136.5q0 55 -26.5 83.5t-83.5 35.5l24 106h11q83 0 123.5 42.5t40.5 129.5q0 41 -15.5 61.5t-46.5 20.5q-34 0 -60.5 -30.5t-37.5 -84.5h-135q18 114 80 175t159 61 q90 0 142.5 -54t52.5 -147t-39.5 -161.5t-104.5 -90.5q33 -28 48.5 -66.5t15.5 -93.5q0 -139 -69.5 -221t-188.5 -82q-102 0 -157.5 57t-55.5 163z" />
<glyph unicode="&#xb4;" d="M479 1223l232 348h192l-301 -348h-123z" />
<glyph unicode="&#xb5;" horiz-adv-x="1208" d="M-92 -430l297 1511h229l-125 -635q-6 -29 -9 -55t-3 -49q0 -96 46.5 -146.5t135.5 -50.5q122 0 193.5 88.5t111.5 292.5l109 555h225l-145 -739q-10 -49 -14.5 -81.5t-4.5 -51.5q0 -36 15.5 -51t52.5 -15q13 0 20.5 0.5t13.5 1.5l-32 -159q-32 -9 -68.5 -13t-81.5 -4 q-74 0 -111.5 31.5t-37.5 93.5v15q-41 -67 -108 -104.5t-146 -37.5q-81 0 -137.5 26t-97.5 83l-99 -506h-229z" />
<glyph unicode="&#xb6;" d="M55 1130q0 158 107 253.5t284 95.5h523v-99h-117v-1380h-129v1380h-168v-1380h-131v784q-168 6 -268.5 101t-100.5 245z" />
<glyph unicode="&#xb7;" horiz-adv-x="440" d="M90 735q0 54 37.5 91.5t91.5 37.5t91.5 -37.5t37.5 -91.5t-37.5 -91.5t-91.5 -37.5t-91.5 37.5t-37.5 91.5z" />
<glyph unicode="&#xb8;" d="M63 -422l37 98q80 -23 130 -34t81 -11q73 0 105.5 23.5t32.5 75.5q0 43 -40 61.5t-139 18.5h-22l65 190h78l-35 -102h23q105 0 159 -42t54 -124q0 -99 -64.5 -152t-185.5 -53q-48 0 -115.5 12.5t-163.5 38.5z" />
<glyph unicode="&#xb9;" horiz-adv-x="582" d="M-12 588l28 119h140l129 565h-138l19 82q62 12 120.5 40.5t116.5 75.5h74l-176 -763h154l-27 -119h-440z" />
<glyph unicode="&#xba;" horiz-adv-x="664" d="M4 967q0 134 46 259t122 199q41 39 90.5 59.5t104.5 20.5q110 0 170.5 -68t60.5 -194q0 -97 -30.5 -201.5t-82.5 -185.5q-46 -73 -108.5 -112t-132.5 -39q-122 0 -181 64t-59 198zM170 940q0 -52 16.5 -77t51.5 -25q29 0 58.5 25.5t49.5 70.5q38 81 60 170.5t22 163.5 q0 55 -16 79.5t-52 24.5q-38 0 -66 -29t-56 -100q-33 -77 -50.5 -156.5t-17.5 -146.5z" />
<glyph unicode="&#xbb;" horiz-adv-x="874" d="M-8 246l237 297l-155 297h176l158 -297l-240 -297h-176zM360 246l240 297l-158 297h179l155 -297l-237 -297h-179z" />
<glyph unicode="&#xbc;" horiz-adv-x="1454" d="M-12 647l26 111h133l125 526h-131l17 78q57 11 112.5 37.5t114.5 70.5h70l-168 -712h147l-26 -111h-420zM213 -25l889 1532h135l-889 -1532h-135zM870 199l25 104l401 520h150l-125 -520h90l-25 -104h-90l-47 -199h-133l47 199h-293zM1030 303h158l80 298q4 14 13 39 t22 54q-21 -37 -35.5 -61.5t-19.5 -31.5z" />
<glyph unicode="&#xbd;" horiz-adv-x="1454" d="M-12 647l26 111h133l125 526h-131l17 78q57 11 112.5 37.5t114.5 70.5h70l-168 -712h147l-26 -111h-420zM213 -25l889 1532h135l-889 -1532h-135zM846 0l20 109q241 212 337.5 333.5t96.5 204.5q0 38 -18.5 60t-50.5 22q-43 0 -67 -33t-31 -106h-136q13 122 72 185 t162 63q97 0 153 -52t56 -143q0 -58 -23.5 -114t-75.5 -121q-27 -37 -99.5 -107t-199.5 -184h283l-22 -117h-457z" />
<glyph unicode="&#xbe;" horiz-adv-x="1454" d="M-4 836q0 10 1 21.5t4 33.5h130q-2 -11 -3 -20.5t-1 -22.5q0 -48 19.5 -74t54.5 -26q43 0 73.5 51.5t30.5 128.5q0 50 -25.5 76t-80.5 32l22 101h10q81 0 119.5 39.5t38.5 121.5q0 37 -15 55.5t-44 18.5q-33 0 -57.5 -28t-34.5 -78h-132q19 107 78 164t152 57 q86 0 136 -50.5t50 -138.5q0 -86 -37.5 -149t-99.5 -84q32 -29 46.5 -65t14.5 -85q0 -129 -66.5 -205.5t-178.5 -76.5q-99 0 -152 52.5t-53 150.5zM215 -25l889 1532h135l-889 -1532h-135zM872 199l25 104l401 520h150l-125 -520h90l-24 -104h-91l-47 -199h-133l47 199h-293 zM1032 303h158l80 298q4 14 13 39t22 54q-21 -37 -35.5 -61.5t-19.5 -31.5z" />
<glyph unicode="&#xbf;" horiz-adv-x="707" d="M-55 246q0 131 176 321q37 39 55 60q101 114 145.5 206.5t55.5 200.5h194q-14 -121 -50 -221.5t-99 -196.5q-32 -46 -103 -127q-25 -29 -36 -42l-8 -10q-101 -121 -101 -193q0 -43 27 -68.5t73 -25.5q53 0 92.5 38.5t59.5 110.5l180 -63q-36 -130 -123.5 -199.5 t-214.5 -69.5q-140 0 -231.5 79t-91.5 200zM373 1243l49 230h237l-49 -230h-237z" />
<glyph unicode="&#xc0;" horiz-adv-x="903" d="M-109 0l592 1485h265v-1485h-238l12 326h-268l-119 -326h-244zM332 551h198l27 666zM377 1972h199l211 -348h-109z" />
<glyph unicode="&#xc1;" horiz-adv-x="903" d="M-109 0l592 1485h265v-1485h-238l12 326h-268l-119 -326h-244zM332 551h198l27 666zM502 1624l232 348h192l-301 -348h-123z" />
<glyph unicode="&#xc2;" horiz-adv-x="903" d="M-109 0l592 1485h265v-1485h-238l12 326h-268l-119 -326h-244zM332 551h198l27 666zM340 1624l267 348h184l139 -348h-110l-133 219l-226 -219h-121z" />
<glyph unicode="&#xc3;" horiz-adv-x="903" d="M-109 0l592 1485h265v-1485h-238l12 326h-268l-119 -326h-244zM332 551h198l27 666zM375 1673q25 104 75.5 155.5t127.5 51.5q15 0 31.5 -2.5t36.5 -8.5l88 -26q11 -4 24 -6t25 -2q33 0 53 17t33 56h102q-28 -104 -78 -153t-129 -49q-16 0 -29 1.5t-26 6.5l-88 28 q-14 5 -27.5 7t-27.5 2q-35 0 -56 -19.5t-31 -58.5h-104z" />
<glyph unicode="&#xc4;" horiz-adv-x="903" d="M-109 0l592 1485h265v-1485h-238l12 326h-268l-119 -326h-244zM332 551h198l27 666zM396 1683l43 209h184l-45 -209h-182zM725 1683l43 209h185l-45 -209h-183z" />
<glyph unicode="&#xc5;" horiz-adv-x="903" d="M-109 0l592 1475h78q-89 30 -137.5 94.5t-48.5 150.5q0 106 73.5 179t180.5 73q106 0 179 -73t73 -179q0 -89 -50 -153.5t-139 -91.5h56v-1475h-238l12 326h-268l-119 -326h-244zM332 551h198l27 666zM485 1718q0 -59 42 -100t102 -41t100.5 40.5t40.5 100.5t-41.5 102 t-99.5 42q-60 0 -102 -42t-42 -102z" />
<glyph unicode="&#xc6;" horiz-adv-x="1438" d="M-137 0l774 1485h864l-47 -217h-438l-84 -396h328l-48 -215h-325l-94 -442h460l-45 -215h-712l67 322h-291l-166 -322h-243zM385 537h225l162 731h-37z" />
<glyph unicode="&#xc7;" horiz-adv-x="1022" d="M41 412q0 223 50 437.5t138 377.5q78 141 184 216t230 75q162 0 258 -108t96 -290q0 -32 -1.5 -64.5t-4.5 -66.5h-239q0 6 1 18q7 62 7 87q0 100 -32.5 151t-96.5 51t-117 -58t-98 -177q-60 -161 -94.5 -340.5t-34.5 -329.5q0 -107 31.5 -157t99.5 -50q80 0 142 82 t97 238h238q-36 -245 -170.5 -391t-321.5 -146q-179 0 -270.5 112.5t-91.5 332.5zM81 -422l37 98q80 -23 130 -34t81 -11q73 0 105.5 23.5t32.5 75.5q0 43 -40 61.5t-139 18.5h-22l65 190h78l-35 -102h23q105 0 159 -42t54 -124q0 -99 -64.5 -152t-185.5 -53 q-48 0 -115.5 12.5t-163.5 38.5z" />
<glyph unicode="&#xc8;" horiz-adv-x="922" d="M-27 0l316 1485h690l-45 -217h-438l-84 -396h325l-47 -215h-325l-93 -442h461l-47 -215h-713zM387 1972h199l211 -348h-109z" />
<glyph unicode="&#xc9;" horiz-adv-x="922" d="M-27 0l316 1485h690l-45 -217h-438l-84 -396h325l-47 -215h-325l-93 -442h461l-47 -215h-713zM512 1624l232 348h192l-301 -348h-123z" />
<glyph unicode="&#xca;" horiz-adv-x="922" d="M-27 0l316 1485h690l-45 -217h-438l-84 -396h325l-47 -215h-325l-93 -442h461l-47 -215h-713zM350 1624l267 348h184l139 -348h-110l-133 219l-226 -219h-121z" />
<glyph unicode="&#xcb;" horiz-adv-x="922" d="M-27 0l316 1485h690l-45 -217h-438l-84 -396h325l-47 -215h-325l-93 -442h461l-47 -215h-713zM406 1683l43 209h184l-45 -209h-182zM735 1683l43 209h185l-45 -209h-183z" />
<glyph unicode="&#xcc;" horiz-adv-x="504" d="M-33 0l316 1485h252l-316 -1485h-252zM178 1972h199l211 -348h-109z" />
<glyph unicode="&#xcd;" horiz-adv-x="504" d="M-33 0l316 1485h252l-316 -1485h-252zM303 1624l232 348h192l-301 -348h-123z" />
<glyph unicode="&#xce;" horiz-adv-x="504" d="M-33 0l316 1485h252l-316 -1485h-252zM141 1624l267 348h184l139 -348h-110l-133 219l-226 -219h-121z" />
<glyph unicode="&#xcf;" horiz-adv-x="504" d="M-33 0l316 1485h252l-316 -1485h-252zM197 1683l43 209h184l-45 -209h-182zM526 1683l43 209h185l-45 -209h-183z" />
<glyph unicode="&#xd0;" horiz-adv-x="1063" d="M-18 0l151 702h-141l33 156h141l131 627h203q286 0 400 -111t114 -383q0 -237 -64.5 -458t-165.5 -345q-85 -104 -202.5 -146t-368.5 -42h-231zM281 213q8 0 23 -1t22 -1q110 0 175.5 34t110.5 113q65 114 104.5 289.5t39.5 358.5q0 140 -53 202t-173 62h-24l-88 -412 h168l-35 -156h-168z" />
<glyph unicode="&#xd1;" horiz-adv-x="1083" d="M-29 0l316 1485h233l152 -834q10 -57 15 -119.5t5 -132.5h10q0 98 5 172t14 121l153 793h234l-315 -1485h-197l-162 873q-11 60 -16.5 132t-5.5 156v39h-9q0 -100 -5.5 -184t-16.5 -139l-176 -877h-234zM465 1673q25 104 75.5 155.5t127.5 51.5q15 0 31.5 -2.5t36.5 -8.5 l88 -26q11 -4 24 -6t25 -2q33 0 53 17t33 56h102q-28 -104 -78 -153t-129 -49q-16 0 -29 1.5t-26 6.5l-88 28q-14 5 -27.5 7t-27.5 2q-35 0 -56 -19.5t-31 -58.5h-104z" />
<glyph unicode="&#xd2;" horiz-adv-x="1044" d="M41 416q0 223 50 437t138 374q80 143 185.5 217t230.5 74q175 0 265.5 -120.5t90.5 -350.5q0 -86 -10.5 -180t-32.5 -199q-32 -153 -78.5 -274.5t-107.5 -213.5q-68 -101 -166 -157t-209 -56q-175 0 -265.5 114t-90.5 335zM287 385q0 -107 29.5 -153t97.5 -46 q65 0 118.5 58t98.5 178q57 153 90 331t33 328q0 111 -31 163t-96 52q-62 0 -114 -57.5t-97 -177.5q-61 -159 -95 -339t-34 -337zM434 1972h199l211 -348h-109z" />
<glyph unicode="&#xd3;" horiz-adv-x="1044" d="M41 416q0 223 50 437t138 374q80 143 185.5 217t230.5 74q175 0 265.5 -120.5t90.5 -350.5q0 -86 -10.5 -180t-32.5 -199q-32 -153 -78.5 -274.5t-107.5 -213.5q-68 -101 -166 -157t-209 -56q-175 0 -265.5 114t-90.5 335zM287 385q0 -107 29.5 -153t97.5 -46 q65 0 118.5 58t98.5 178q57 153 90 331t33 328q0 111 -31 163t-96 52q-62 0 -114 -57.5t-97 -177.5q-61 -159 -95 -339t-34 -337zM559 1624l232 348h192l-301 -348h-123z" />
<glyph unicode="&#xd4;" horiz-adv-x="1044" d="M41 416q0 223 50 437t138 374q80 143 185.5 217t230.5 74q175 0 265.5 -120.5t90.5 -350.5q0 -86 -10.5 -180t-32.5 -199q-32 -153 -78.5 -274.5t-107.5 -213.5q-68 -101 -166 -157t-209 -56q-175 0 -265.5 114t-90.5 335zM287 385q0 -107 29.5 -153t97.5 -46 q65 0 118.5 58t98.5 178q57 153 90 331t33 328q0 111 -31 163t-96 52q-62 0 -114 -57.5t-97 -177.5q-61 -159 -95 -339t-34 -337zM397 1624l267 348h184l139 -348h-110l-133 219l-226 -219h-121z" />
<glyph unicode="&#xd5;" horiz-adv-x="1044" d="M41 416q0 223 50 437t138 374q80 143 185.5 217t230.5 74q175 0 265.5 -120.5t90.5 -350.5q0 -86 -10.5 -180t-32.5 -199q-32 -153 -78.5 -274.5t-107.5 -213.5q-68 -101 -166 -157t-209 -56q-175 0 -265.5 114t-90.5 335zM287 385q0 -107 29.5 -153t97.5 -46 q65 0 118.5 58t98.5 178q57 153 90 331t33 328q0 111 -31 163t-96 52q-62 0 -114 -57.5t-97 -177.5q-61 -159 -95 -339t-34 -337zM432 1673q25 104 75.5 155.5t127.5 51.5q15 0 31.5 -2.5t36.5 -8.5l88 -26q11 -4 24 -6t25 -2q33 0 53 17t33 56h102q-28 -104 -78 -153 t-129 -49q-16 0 -29 1.5t-26 6.5l-88 28q-14 5 -27.5 7t-27.5 2q-35 0 -56 -19.5t-31 -58.5h-104z" />
<glyph unicode="&#xd6;" horiz-adv-x="1044" d="M41 416q0 223 50 437t138 374q80 143 185.5 217t230.5 74q175 0 265.5 -120.5t90.5 -350.5q0 -86 -10.5 -180t-32.5 -199q-32 -153 -78.5 -274.5t-107.5 -213.5q-68 -101 -166 -157t-209 -56q-175 0 -265.5 114t-90.5 335zM287 385q0 -107 29.5 -153t97.5 -46 q65 0 118.5 58t98.5 178q57 153 90 331t33 328q0 111 -31 163t-96 52q-62 0 -114 -57.5t-97 -177.5q-61 -159 -95 -339t-34 -337zM453 1683l43 209h184l-45 -209h-182zM782 1683l43 209h185l-45 -209h-183z" />
<glyph unicode="&#xd7;" horiz-adv-x="1706" d="M287 152l458 458l-458 461l116 117l459 -459l461 459l117 -117l-459 -461l459 -458l-117 -119l-461 461l-459 -461z" />
<glyph unicode="&#xd8;" horiz-adv-x="1044" d="M41 399q0 227 49.5 445t138.5 383q79 144 187 217.5t241 73.5q32 0 67 -8.5t73 -24.5l73 168l125 -74l-84 -184q47 -54 68.5 -138t21.5 -210q0 -195 -41.5 -386.5t-119.5 -357.5q-78 -165 -189.5 -250.5t-249.5 -85.5q-30 0 -62.5 5t-68.5 16l-100 -219l-125 69l100 223 q-53 57 -78.5 139.5t-25.5 198.5zM281 387q0 -11 1 -33t1 -32l430 935q-17 21 -38 30t-48 9q-78 0 -136.5 -79t-119.5 -271q-44 -135 -67 -278t-23 -281zM350 203q17 -9 33 -13t33 -4q136 0 226.5 237.5t115.5 663.5z" />
<glyph unicode="&#xd9;" horiz-adv-x="1038" d="M55 305q0 42 6.5 92.5t18.5 110.5l205 977h245l-213 -1018q-12 -59 -18 -100.5t-6 -67.5q0 -66 30.5 -97.5t94.5 -31.5q70 0 109 50.5t69 193.5l219 1071h248l-225 -1079q-53 -248 -145 -343.5t-269 -95.5q-184 0 -276.5 84.5t-92.5 253.5zM444 1972h199l211 -348h-109z " />
<glyph unicode="&#xda;" horiz-adv-x="1038" d="M55 305q0 42 6.5 92.5t18.5 110.5l205 977h245l-213 -1018q-12 -59 -18 -100.5t-6 -67.5q0 -66 30.5 -97.5t94.5 -31.5q70 0 109 50.5t69 193.5l219 1071h248l-225 -1079q-53 -248 -145 -343.5t-269 -95.5q-184 0 -276.5 84.5t-92.5 253.5zM569 1624l232 348h192 l-301 -348h-123z" />
<glyph unicode="&#xdb;" horiz-adv-x="1038" d="M55 305q0 42 6.5 92.5t18.5 110.5l205 977h245l-213 -1018q-12 -59 -18 -100.5t-6 -67.5q0 -66 30.5 -97.5t94.5 -31.5q70 0 109 50.5t69 193.5l219 1071h248l-225 -1079q-53 -248 -145 -343.5t-269 -95.5q-184 0 -276.5 84.5t-92.5 253.5zM407 1624l267 348h184 l139 -348h-110l-133 219l-226 -219h-121z" />
<glyph unicode="&#xdc;" horiz-adv-x="1038" d="M55 305q0 42 6.5 92.5t18.5 110.5l205 977h245l-213 -1018q-12 -59 -18 -100.5t-6 -67.5q0 -66 30.5 -97.5t94.5 -31.5q70 0 109 50.5t69 193.5l219 1071h248l-225 -1079q-53 -248 -145 -343.5t-269 -95.5q-184 0 -276.5 84.5t-92.5 253.5zM463 1683l43 209h184l-45 -209 h-182zM792 1683l43 209h185l-45 -209h-183z" />
<glyph unicode="&#xdd;" horiz-adv-x="788" d="M106 0l132 635l-125 850h237l47 -491q3 -29 4.5 -57t1.5 -54q0 -14 -0.5 -28.5t-3.5 -45.5q10 52 23.5 96t32.5 80l250 500h256l-480 -871l-125 -614h-250zM444 1624l232 348h192l-301 -348h-123z" />
<glyph unicode="&#xde;" horiz-adv-x="1049" d="M-23 0l316 1485h254l-62 -266h70q199 0 308.5 -99.5t109.5 -279.5q0 -231 -134.5 -351t-392.5 -120h-141l-82 -369h-246zM346 575h131q118 0 188 71t70 188q0 89 -49 133.5t-147 44.5h-97z" />
<glyph unicode="&#xdf;" horiz-adv-x="952" d="M-31 0l240 1128q40 193 127 281t235 88q152 0 240 -85.5t88 -231.5q0 -133 -61 -231.5t-166 -135.5q73 -53 106 -125t33 -182q0 -125 -44 -239t-118 -183q-48 -43 -103.5 -64.5t-119.5 -21.5q-33 0 -64 4t-61 12l33 178q13 -3 25 -4.5t24 -1.5q94 0 149.5 89t55.5 241 q0 88 -28.5 142.5t-90.5 89.5l33 157q83 10 130.5 83t47.5 192q0 65 -29.5 101t-83.5 36q-49 0 -80 -47.5t-57 -169.5l-233 -1100h-228z" />
<glyph unicode="&#xe0;" horiz-adv-x="909" d="M-29 225q0 177 155.5 299t430.5 158q7 32 10.5 63.5t3.5 59.5q0 70 -27 103.5t-83 33.5q-53 0 -88 -39.5t-45 -111.5h-222q27 158 117 239.5t238 81.5q157 0 247.5 -79t90.5 -216q0 -25 -3.5 -53.5t-9.5 -58.5l-112 -522q-7 -32 -11 -79t-4 -104h-206l-9 84 q-62 -58 -122 -85.5t-123 -27.5q-99 0 -163.5 72t-64.5 182zM197 264q0 -50 28 -80t74 -30q39 0 81 26.5t89 81.5l55 268q-159 -39 -243 -107.5t-84 -158.5zM270 1571h199l211 -348h-109z" />
<glyph unicode="&#xe1;" horiz-adv-x="909" d="M-29 225q0 177 155.5 299t430.5 158q7 32 10.5 63.5t3.5 59.5q0 70 -27 103.5t-83 33.5q-53 0 -88 -39.5t-45 -111.5h-222q27 158 117 239.5t238 81.5q157 0 247.5 -79t90.5 -216q0 -25 -3.5 -53.5t-9.5 -58.5l-112 -522q-7 -32 -11 -79t-4 -104h-206l-9 84 q-62 -58 -122 -85.5t-123 -27.5q-99 0 -163.5 72t-64.5 182zM197 264q0 -50 28 -80t74 -30q39 0 81 26.5t89 81.5l55 268q-159 -39 -243 -107.5t-84 -158.5zM395 1223l232 348h192l-301 -348h-123z" />
<glyph unicode="&#xe2;" horiz-adv-x="909" d="M-29 225q0 177 155.5 299t430.5 158q7 32 10.5 63.5t3.5 59.5q0 70 -27 103.5t-83 33.5q-53 0 -88 -39.5t-45 -111.5h-222q27 158 117 239.5t238 81.5q157 0 247.5 -79t90.5 -216q0 -25 -3.5 -53.5t-9.5 -58.5l-112 -522q-7 -32 -11 -79t-4 -104h-206l-9 84 q-62 -58 -122 -85.5t-123 -27.5q-99 0 -163.5 72t-64.5 182zM197 264q0 -50 28 -80t74 -30q39 0 81 26.5t89 81.5l55 268q-159 -39 -243 -107.5t-84 -158.5zM233 1223l267 348h184l139 -348h-110l-133 219l-226 -219h-121z" />
<glyph unicode="&#xe3;" horiz-adv-x="909" d="M-29 225q0 177 155.5 299t430.5 158q7 32 10.5 63.5t3.5 59.5q0 70 -27 103.5t-83 33.5q-53 0 -88 -39.5t-45 -111.5h-222q27 158 117 239.5t238 81.5q157 0 247.5 -79t90.5 -216q0 -25 -3.5 -53.5t-9.5 -58.5l-112 -522q-7 -32 -11 -79t-4 -104h-206l-9 84 q-62 -58 -122 -85.5t-123 -27.5q-99 0 -163.5 72t-64.5 182zM197 264q0 -50 28 -80t74 -30q39 0 81 26.5t89 81.5l55 268q-159 -39 -243 -107.5t-84 -158.5zM268 1272q25 104 75.5 155.5t127.5 51.5q15 0 31.5 -2.5t36.5 -8.5l88 -26q11 -4 24 -6t25 -2q33 0 53 17t33 56 h102q-28 -104 -78 -153t-129 -49q-16 0 -29 1.5t-26 6.5l-88 28q-14 5 -27.5 7t-27.5 2q-35 0 -56 -19.5t-31 -58.5h-104z" />
<glyph unicode="&#xe4;" horiz-adv-x="909" d="M-29 225q0 177 155.5 299t430.5 158q7 32 10.5 63.5t3.5 59.5q0 70 -27 103.5t-83 33.5q-53 0 -88 -39.5t-45 -111.5h-222q27 158 117 239.5t238 81.5q157 0 247.5 -79t90.5 -216q0 -25 -3.5 -53.5t-9.5 -58.5l-112 -522q-7 -32 -11 -79t-4 -104h-206l-9 84 q-62 -58 -122 -85.5t-123 -27.5q-99 0 -163.5 72t-64.5 182zM197 264q0 -50 28 -80t74 -30q39 0 81 26.5t89 81.5l55 268q-159 -39 -243 -107.5t-84 -158.5zM289 1282l43 209h184l-45 -209h-182zM618 1282l43 209h185l-45 -209h-183z" />
<glyph unicode="&#xe5;" horiz-adv-x="909" d="M-29 225q0 177 155.5 299t430.5 158q7 32 10.5 63.5t3.5 59.5q0 70 -27 103.5t-83 33.5q-53 0 -88 -39.5t-45 -111.5h-222q27 158 117 239.5t238 81.5q157 0 247.5 -79t90.5 -216q0 -25 -3.5 -53.5t-9.5 -58.5l-112 -522q-7 -32 -11 -79t-4 -104h-206l-9 84 q-62 -58 -122 -85.5t-123 -27.5q-99 0 -163.5 72t-64.5 182zM197 264q0 -50 28 -80t74 -30q39 0 81 26.5t89 81.5l55 268q-159 -39 -243 -107.5t-84 -158.5zM305 1432q0 106 73 178.5t179 72.5t179 -72.5t73 -178.5q0 -107 -73 -180.5t-179 -73.5t-179 73.5t-73 180.5z M416 1430q0 -60 40.5 -101t100.5 -41t100.5 41t40.5 101q0 59 -41 101t-100 42q-60 0 -100.5 -41.5t-40.5 -101.5z" />
<glyph unicode="&#xe6;" horiz-adv-x="1372" d="M-29 223q0 177 146 291t440 168q9 41 12.5 71t3.5 54q0 68 -28 101.5t-84 33.5q-53 0 -88 -39.5t-45 -111.5h-222q23 151 114 237t229 86q82 0 149.5 -28t126.5 -87q57 58 122 86.5t138 28.5q142 0 221.5 -89.5t79.5 -250.5q0 -61 -8 -125t-25 -129h-508 q-12 -68 -18 -122t-6 -91q0 -74 23.5 -111.5t70.5 -37.5q53 0 98.5 57.5t75.5 161.5h230q-46 -190 -156.5 -298t-255.5 -108q-93 0 -161 37.5t-105 108.5q-89 -75 -167.5 -110.5t-154.5 -35.5q-115 0 -181.5 67.5t-66.5 184.5zM197 264q0 -50 27 -78t75 -28q43 0 87.5 27 t82.5 77l55 268q-159 -39 -243 -107.5t-84 -158.5zM793 700h258q7 33 10.5 56.5t3.5 44.5q0 58 -24 90.5t-68 32.5q-60 0 -105.5 -56.5t-74.5 -167.5z" />
<glyph unicode="&#xe7;" horiz-adv-x="879" d="M-9 -422l37 98q80 -23 130 -34t81 -11q73 0 105.5 23.5t32.5 75.5q0 43 -40 61.5t-139 18.5h-22l65 190h78l-35 -102h23q105 0 159 -42t54 -124q0 -99 -64.5 -152t-185.5 -53q-48 0 -115.5 12.5t-163.5 38.5zM4 344q0 192 62 370.5t163 284.5q53 56 120 85.5t140 29.5 q143 0 222.5 -90t79.5 -252q0 -25 -0.5 -37.5t-2.5 -23.5h-223q2 12 3 27t1 42q0 71 -23 109.5t-65 38.5q-49 0 -88.5 -44.5t-77.5 -142.5q-43 -112 -66.5 -225.5t-23.5 -206.5q0 -73 23 -110t69 -37q54 0 102.5 58.5t74.5 156.5h229q-45 -189 -156 -297.5t-256 -108.5 q-152 0 -229.5 94.5t-77.5 278.5z" />
<glyph unicode="&#xe8;" horiz-adv-x="879" d="M4 344q0 192 62 370.5t163 284.5q53 56 120 85.5t140 29.5q142 0 222 -89.5t80 -250.5q0 -61 -8.5 -125t-24.5 -129h-508q-12 -68 -18.5 -122t-6.5 -91q0 -73 23.5 -109t70.5 -36q54 0 99.5 56t75.5 159h229q-46 -190 -156 -298t-256 -108q-152 0 -229.5 94.5 t-77.5 278.5zM264 1571h199l211 -348h-109zM301 700h258q6 27 9 51.5t3 49.5q0 59 -23 91t-67 32q-60 0 -105.5 -56.5t-74.5 -167.5z" />
<glyph unicode="&#xe9;" horiz-adv-x="879" d="M4 344q0 192 62 370.5t163 284.5q53 56 120 85.5t140 29.5q142 0 222 -89.5t80 -250.5q0 -61 -8.5 -125t-24.5 -129h-508q-12 -68 -18.5 -122t-6.5 -91q0 -73 23.5 -109t70.5 -36q54 0 99.5 56t75.5 159h229q-46 -190 -156 -298t-256 -108q-152 0 -229.5 94.5 t-77.5 278.5zM301 700h258q6 27 9 51.5t3 49.5q0 59 -23 91t-67 32q-60 0 -105.5 -56.5t-74.5 -167.5zM389 1223l232 348h192l-301 -348h-123z" />
<glyph unicode="&#xea;" horiz-adv-x="879" d="M4 344q0 192 62 370.5t163 284.5q53 56 120 85.5t140 29.5q142 0 222 -89.5t80 -250.5q0 -61 -8.5 -125t-24.5 -129h-508q-12 -68 -18.5 -122t-6.5 -91q0 -73 23.5 -109t70.5 -36q54 0 99.5 56t75.5 159h229q-46 -190 -156 -298t-256 -108q-152 0 -229.5 94.5 t-77.5 278.5zM227 1223l267 348h184l139 -348h-110l-133 219l-226 -219h-121zM301 700h258q6 27 9 51.5t3 49.5q0 59 -23 91t-67 32q-60 0 -105.5 -56.5t-74.5 -167.5z" />
<glyph unicode="&#xeb;" horiz-adv-x="879" d="M4 344q0 192 62 370.5t163 284.5q53 56 120 85.5t140 29.5q142 0 222 -89.5t80 -250.5q0 -61 -8.5 -125t-24.5 -129h-508q-12 -68 -18.5 -122t-6.5 -91q0 -73 23.5 -109t70.5 -36q54 0 99.5 56t75.5 159h229q-46 -190 -156 -298t-256 -108q-152 0 -229.5 94.5 t-77.5 278.5zM283 1282l43 209h184l-45 -209h-182zM301 700h258q6 27 9 51.5t3 49.5q0 59 -23 91t-67 32q-60 0 -105.5 -56.5t-74.5 -167.5zM612 1282l43 209h185l-45 -209h-183z" />
<glyph unicode="&#xec;" horiz-adv-x="463" d="M-39 0l232 1085h227l-230 -1085h-229zM73 1571h199l211 -348h-109z" />
<glyph unicode="&#xed;" horiz-adv-x="463" d="M-39 0l232 1085h227l-230 -1085h-229zM198 1223l232 348h192l-301 -348h-123z" />
<glyph unicode="&#xee;" horiz-adv-x="463" d="M-39 0l232 1085h227l-230 -1085h-229zM36 1223l267 348h184l139 -348h-110l-133 219l-226 -219h-121z" />
<glyph unicode="&#xef;" horiz-adv-x="463" d="M-39 0l232 1085h227l-230 -1085h-229zM92 1282l43 209h184l-45 -209h-182zM421 1282l43 209h185l-45 -209h-183z" />
<glyph unicode="&#xf0;" horiz-adv-x="885" d="M4 346q0 159 49.5 304.5t139.5 250.5q48 56 109 84.5t132 28.5q19 0 42.5 -5t55.5 -15q-4 39 -16.5 80.5t-32.5 84.5l-225 -78l-41 121l217 76q-20 43 -44.5 81.5t-53.5 72.5l127 81q22 -17 53 -57t82 -121l203 70l39 -123l-183 -61q60 -122 90.5 -255.5t30.5 -275.5 q0 -309 -135 -514t-332 -205q-152 0 -229.5 94.5t-77.5 280.5zM227 317q0 -79 24 -118t73 -39q40 0 74.5 34.5t68.5 110.5q42 96 65 197.5t23 189.5q0 82 -23.5 122t-70.5 40q-45 0 -76 -28.5t-66 -104.5q-43 -98 -67.5 -205.5t-24.5 -198.5z" />
<glyph unicode="&#xf1;" horiz-adv-x="934" d="M-39 0l232 1085h196l-14 -104q71 63 133.5 92t128.5 29q98 0 149.5 -53t51.5 -154q0 -36 -6 -81t-19 -101l-151 -713h-230l164 764q5 26 7.5 47t2.5 39q0 42 -21 66t-59 24q-34 0 -71.5 -19.5t-81.5 -60.5l-183 -860h-229zM307 1272q25 104 75.5 155.5t127.5 51.5 q15 0 31.5 -2.5t36.5 -8.5l88 -26q11 -4 24 -6t25 -2q33 0 53 17t33 56h102q-28 -104 -78 -153t-129 -49q-16 0 -29 1.5t-26 6.5l-88 28q-14 5 -27.5 7t-27.5 2q-35 0 -56 -19.5t-31 -58.5h-104z" />
<glyph unicode="&#xf2;" horiz-adv-x="885" d="M4 346q0 190 62 368.5t163 284.5q53 56 120 85.5t140 29.5q147 0 227.5 -98t80.5 -277q0 -138 -40.5 -287t-109.5 -264q-63 -104 -146.5 -160.5t-176.5 -56.5q-163 0 -241.5 92.5t-78.5 282.5zM225 307q0 -73 22.5 -109t67.5 -36q41 0 79.5 35.5t66.5 99.5 q51 116 79.5 243.5t28.5 233.5q0 79 -20.5 114.5t-67.5 35.5q-53 0 -90 -40.5t-76 -142.5q-43 -114 -66.5 -228t-23.5 -206zM284 1571h199l211 -348h-109z" />
<glyph unicode="&#xf3;" horiz-adv-x="885" d="M4 346q0 190 62 368.5t163 284.5q53 56 120 85.5t140 29.5q147 0 227.5 -98t80.5 -277q0 -138 -40.5 -287t-109.5 -264q-63 -104 -146.5 -160.5t-176.5 -56.5q-163 0 -241.5 92.5t-78.5 282.5zM225 307q0 -73 22.5 -109t67.5 -36q41 0 79.5 35.5t66.5 99.5 q51 116 79.5 243.5t28.5 233.5q0 79 -20.5 114.5t-67.5 35.5q-53 0 -90 -40.5t-76 -142.5q-43 -114 -66.5 -228t-23.5 -206zM409 1223l232 348h192l-301 -348h-123z" />
<glyph unicode="&#xf4;" horiz-adv-x="885" d="M4 346q0 190 62 368.5t163 284.5q53 56 120 85.5t140 29.5q147 0 227.5 -98t80.5 -277q0 -138 -40.5 -287t-109.5 -264q-63 -104 -146.5 -160.5t-176.5 -56.5q-163 0 -241.5 92.5t-78.5 282.5zM225 307q0 -73 22.5 -109t67.5 -36q41 0 79.5 35.5t66.5 99.5 q51 116 79.5 243.5t28.5 233.5q0 79 -20.5 114.5t-67.5 35.5q-53 0 -90 -40.5t-76 -142.5q-43 -114 -66.5 -228t-23.5 -206zM247 1223l267 348h184l139 -348h-110l-133 219l-226 -219h-121z" />
<glyph unicode="&#xf5;" horiz-adv-x="885" d="M4 346q0 190 62 368.5t163 284.5q53 56 120 85.5t140 29.5q147 0 227.5 -98t80.5 -277q0 -138 -40.5 -287t-109.5 -264q-63 -104 -146.5 -160.5t-176.5 -56.5q-163 0 -241.5 92.5t-78.5 282.5zM225 307q0 -73 22.5 -109t67.5 -36q41 0 79.5 35.5t66.5 99.5 q51 116 79.5 243.5t28.5 233.5q0 79 -20.5 114.5t-67.5 35.5q-53 0 -90 -40.5t-76 -142.5q-43 -114 -66.5 -228t-23.5 -206zM282 1272q25 104 75.5 155.5t127.5 51.5q15 0 31.5 -2.5t36.5 -8.5l88 -26q11 -4 24 -6t25 -2q33 0 53 17t33 56h102q-28 -104 -78 -153t-129 -49 q-16 0 -29 1.5t-26 6.5l-88 28q-14 5 -27.5 7t-27.5 2q-35 0 -56 -19.5t-31 -58.5h-104z" />
<glyph unicode="&#xf6;" horiz-adv-x="885" d="M4 346q0 190 62 368.5t163 284.5q53 56 120 85.5t140 29.5q147 0 227.5 -98t80.5 -277q0 -138 -40.5 -287t-109.5 -264q-63 -104 -146.5 -160.5t-176.5 -56.5q-163 0 -241.5 92.5t-78.5 282.5zM225 307q0 -73 22.5 -109t67.5 -36q41 0 79.5 35.5t66.5 99.5 q51 116 79.5 243.5t28.5 233.5q0 79 -20.5 114.5t-67.5 35.5q-53 0 -90 -40.5t-76 -142.5q-43 -114 -66.5 -228t-23.5 -206zM303 1282l43 209h184l-45 -209h-182zM632 1282l43 209h185l-45 -209h-183z" />
<glyph unicode="&#xf7;" horiz-adv-x="1706" d="M254 528v166h1198v-166h-1198zM717 229q0 57 40.5 97.5t96.5 40.5q57 0 97 -40.5t40 -97.5q0 -56 -39.5 -95.5t-97.5 -39.5t-97.5 39t-39.5 96zM717 989q0 57 40.5 98t96.5 41q57 0 97 -41t40 -98q0 -56 -39.5 -95.5t-97.5 -39.5t-97.5 39t-39.5 96z" />
<glyph unicode="&#xf8;" horiz-adv-x="885" d="M-33 -188l121 243q-43 49 -63.5 119t-20.5 166q0 153 42 305t118 270q61 97 145 148t180 51q24 0 52 -5t65 -15l99 202l106 -51l-106 -217q46 -48 69 -117t23 -163q0 -184 -61 -364t-161 -292q-52 -59 -121.5 -91t-144.5 -32q-26 0 -56.5 5.5t-68.5 17.5l-110 -234z M215 276l320 644q-19 8 -34 12t-28 4q-50 0 -88 -43t-78 -148q-45 -118 -68.5 -232t-23.5 -212v-25zM258 172q10 -8 21.5 -12t25.5 -4q107 0 183.5 179t89.5 472z" />
<glyph unicode="&#xf9;" horiz-adv-x="934" d="M16 180q0 33 6.5 76t20.5 106l154 723h227l-164 -776l-1 -6q-11 -55 -11 -78q0 -42 21 -66t59 -24q35 0 73 19t80 59l185 872h229l-233 -1085h-195l12 94q-72 -64 -133.5 -92.5t-126.5 -28.5q-99 0 -151 53t-52 154zM309 1571h199l211 -348h-109z" />
<glyph unicode="&#xfa;" horiz-adv-x="934" d="M16 180q0 33 6.5 76t20.5 106l154 723h227l-164 -776l-1 -6q-11 -55 -11 -78q0 -42 21 -66t59 -24q35 0 73 19t80 59l185 872h229l-233 -1085h-195l12 94q-72 -64 -133.5 -92.5t-126.5 -28.5q-99 0 -151 53t-52 154zM434 1223l232 348h192l-301 -348h-123z" />
<glyph unicode="&#xfb;" horiz-adv-x="934" d="M16 180q0 33 6.5 76t20.5 106l154 723h227l-164 -776l-1 -6q-11 -55 -11 -78q0 -42 21 -66t59 -24q35 0 73 19t80 59l185 872h229l-233 -1085h-195l12 94q-72 -64 -133.5 -92.5t-126.5 -28.5q-99 0 -151 53t-52 154zM272 1223l267 348h184l139 -348h-110l-133 219 l-226 -219h-121z" />
<glyph unicode="&#xfc;" horiz-adv-x="934" d="M16 180q0 33 6.5 76t20.5 106l154 723h227l-164 -776l-1 -6q-11 -55 -11 -78q0 -42 21 -66t59 -24q35 0 73 19t80 59l185 872h229l-233 -1085h-195l12 94q-72 -64 -133.5 -92.5t-126.5 -28.5q-99 0 -151 53t-52 154zM328 1282l43 209h184l-45 -209h-182zM657 1282l43 209 h185l-45 -209h-183z" />
<glyph unicode="&#xfd;" horiz-adv-x="780" d="M-164 -330l41 176q24 -4 46 -6t44 -2q81 0 114.5 42t33.5 147v30l-31 1028h215v-602q0 -32 -7.5 -99.5t-21.5 -158.5q18 81 37 146.5t37 105.5l260 608h219l-544 -1216q-56 -124 -118.5 -175.5t-154.5 -51.5q-32 0 -74.5 7t-95.5 21zM358 1223l232 348h192l-301 -348 h-123z" />
<glyph unicode="&#xfe;" horiz-adv-x="938" d="M-113 -356l387 1841h232l-111 -488q33 54 80 81.5t109 27.5q122 0 193 -96t71 -265q0 -139 -38.5 -288.5t-102.5 -261.5q-61 -106 -141.5 -162t-172.5 -56q-54 0 -99.5 26t-84.5 79l-94 -438h-228zM242 238q22 -35 52 -53.5t64 -18.5q47 0 86 35t72 106q48 104 76.5 232 t28.5 235q0 75 -24.5 112.5t-74.5 37.5q-70 0 -119 -80t-88 -260z" />
<glyph unicode="&#xff;" horiz-adv-x="780" d="M-164 -330l41 176q24 -4 46 -6t44 -2q81 0 114.5 42t33.5 147v30l-31 1028h215v-602q0 -32 -7.5 -99.5t-21.5 -158.5q18 81 37 146.5t37 105.5l260 608h219l-544 -1216q-56 -124 -118.5 -175.5t-154.5 -51.5q-32 0 -74.5 7t-95.5 21zM252 1282l43 209h184l-45 -209h-182z M581 1282l43 209h185l-45 -209h-183z" />
<glyph unicode="&#x152;" horiz-adv-x="1536" d="M41 410q0 219 49 430.5t139 386.5q70 134 177.5 212.5t218.5 78.5q104 0 169.5 -64t90.5 -188l43 219h663l-45 -217h-438l-84 -396h326l-45 -215h-328l-92 -442h461l-48 -215h-645l33 195q-60 -107 -142 -165.5t-171 -58.5q-159 0 -245.5 114t-86.5 325zM287 387 q0 -104 30 -152.5t95 -48.5t119.5 58.5t99.5 177.5q57 152 90 328.5t33 330.5q0 111 -31 163t-96 52q-62 0 -114 -57.5t-97 -177.5q-61 -160 -95 -340t-34 -334z" />
<glyph unicode="&#x153;" horiz-adv-x="1393" d="M4 344q0 191 61.5 369t163.5 286q52 55 121.5 85t145.5 30q72 0 128 -28.5t109 -92.5q66 62 133 91.5t140 29.5q141 0 221 -89.5t80 -250.5q0 -61 -8.5 -125t-24.5 -129h-508q-12 -68 -18.5 -122t-6.5 -91q0 -73 23.5 -109t71.5 -36q53 0 98.5 56t75.5 159h229 q-46 -190 -155.5 -298t-254.5 -108q-84 0 -148 30.5t-103 90.5q-64 -62 -128.5 -91.5t-136.5 -29.5q-152 0 -230.5 94.5t-78.5 278.5zM225 307q0 -73 22.5 -109t67.5 -36q41 0 79.5 35.5t66.5 99.5q51 116 79.5 243.5t28.5 233.5q0 79 -20.5 114.5t-67.5 35.5 q-53 0 -90 -40.5t-76 -142.5q-43 -114 -66.5 -228t-23.5 -206zM813 700h260q6 27 9 51.5t3 49.5q0 58 -24 90.5t-68 32.5q-60 0 -105.5 -56.5t-74.5 -167.5z" />
<glyph unicode="&#x178;" horiz-adv-x="788" d="M106 0l132 635l-125 850h237l47 -491q3 -29 4.5 -57t1.5 -54q0 -14 -0.5 -28.5t-3.5 -45.5q10 52 23.5 96t32.5 80l250 500h256l-480 -871l-125 -614h-250zM338 1683l43 209h184l-45 -209h-182zM667 1683l43 209h185l-45 -209h-183z" />
<glyph unicode="&#x2c6;" d="M317 1223l267 348h184l139 -348h-110l-133 219l-226 -219h-121z" />
<glyph unicode="&#x2dc;" d="M352 1272q25 104 75.5 155.5t127.5 51.5q15 0 31.5 -2.5t36.5 -8.5l88 -26q11 -4 24 -6t25 -2q33 0 53 17t33 56h102q-28 -104 -78 -153t-129 -49q-16 0 -29 1.5t-26 6.5l-88 28q-14 5 -27.5 7t-27.5 2q-35 0 -56 -19.5t-31 -58.5h-104z" />
<glyph unicode="&#x2000;" horiz-adv-x="986" />
<glyph unicode="&#x2001;" horiz-adv-x="1972" />
<glyph unicode="&#x2002;" horiz-adv-x="986" />
<glyph unicode="&#x2003;" horiz-adv-x="1972" />
<glyph unicode="&#x2004;" horiz-adv-x="657" />
<glyph unicode="&#x2005;" horiz-adv-x="493" />
<glyph unicode="&#x2006;" horiz-adv-x="328" />
<glyph unicode="&#x2007;" horiz-adv-x="328" />
<glyph unicode="&#x2008;" horiz-adv-x="246" />
<glyph unicode="&#x2009;" horiz-adv-x="394" />
<glyph unicode="&#x200a;" horiz-adv-x="109" />
<glyph unicode="&#x2010;" horiz-adv-x="688" d="M45 446l41 193h465l-41 -193h-465z" />
<glyph unicode="&#x2011;" horiz-adv-x="688" d="M45 446l41 193h465l-41 -193h-465z" />
<glyph unicode="&#x2012;" horiz-adv-x="688" d="M45 446l41 193h465l-41 -193h-465z" />
<glyph unicode="&#x2013;" d="M-43 469l31 145h993l-31 -145h-993z" />
<glyph unicode="&#x2014;" horiz-adv-x="2048" d="M-43 469l31 145h2048l-31 -145h-2048z" />
<glyph unicode="&#x2018;" horiz-adv-x="440" d="M156 995l47 232l211 258h110l-164 -266h72l-49 -224h-227z" />
<glyph unicode="&#x2019;" horiz-adv-x="440" d="M137 995l164 267h-72l47 223h230l-47 -232l-211 -258h-111z" />
<glyph unicode="&#x201a;" horiz-adv-x="440" d="M-127 -256l164 256h-72l47 233h230l-47 -231l-211 -258h-111z" />
<glyph unicode="&#x201c;" horiz-adv-x="752" d="M156 995l47 232l211 258h110l-164 -266h72l-49 -224h-227zM504 995l47 232l211 258h110l-163 -266h71l-47 -224h-229z" />
<glyph unicode="&#x201d;" horiz-adv-x="752" d="M127 995l164 267h-72l47 223h230l-47 -232l-211 -258h-111zM475 995l164 267h-72l47 223h230l-47 -232l-211 -258h-111z" />
<glyph unicode="&#x201e;" horiz-adv-x="752" d="M-141 -256l164 256h-72l49 233h227l-47 -231l-211 -258h-110zM207 -256l164 256h-70l47 233h227l-47 -231l-211 -258h-110z" />
<glyph unicode="&#x2022;" horiz-adv-x="1208" d="M307 762q0 123 87 209t210 86q122 0 208.5 -86.5t86.5 -208.5t-87.5 -209.5t-209.5 -87.5q-123 0 -209 87t-86 210z" />
<glyph unicode="&#x2026;" horiz-adv-x="2048" d="M76 0l49 229h238l-49 -229h-238zM758 0l49 229h238l-49 -229h-238zM1442 0l49 229h238l-49 -229h-238z" />
<glyph unicode="&#x202f;" horiz-adv-x="394" />
<glyph unicode="&#x2039;" horiz-adv-x="504" d="M20 543l240 297h178l-239 -297l155 -297h-176z" />
<glyph unicode="&#x203a;" horiz-adv-x="504" d="M-8 246l237 297l-155 297h176l158 -297l-240 -297h-176z" />
<glyph unicode="&#x205f;" horiz-adv-x="493" />
<glyph unicode="&#x2122;" horiz-adv-x="1706" d="M225 1366v94h467v-94h-168v-448h-129v448h-170zM809 918v542h170l141 -360l133 360h170v-542h-114v428l-160 -428h-59l-166 428v-428h-115z" />
<glyph unicode="&#x25fc;" horiz-adv-x="1085" d="M0 0v1085h1085v-1085h-1085z" />
</font>
</defs>
</svg>
